<svg class="calendar" width="26" height="30" viewBox="0 0 26 30" fill="none" xmlns="http://www.w3.org/2000/svg">
<path d="M0.512451 27.9375C0.512451 28.5598 0.96669 29.0625 1.52893 29.0625H24.908C25.4702 29.0625 25.9244 28.5598 25.9244 27.9375V13.1719H0.512451V27.9375ZM24.908 3.46875H19.5714V1.21875C19.5714 1.06406 19.4571 0.9375 19.3173 0.9375H17.5385C17.3987 0.9375 17.2844 1.06406 17.2844 1.21875V3.46875H9.15252V1.21875C9.15252 1.06406 9.03817 0.9375 8.8984 0.9375H7.11957C6.9798 0.9375 6.86545 1.06406 6.86545 1.21875V3.46875H1.52893C0.96669 3.46875 0.512451 3.97148 0.512451 4.59375V10.7812H25.9244V4.59375C25.9244 3.97148 25.4702 3.46875 24.908 3.46875Z" fill="black"/>
</svg>
